<?xml version="1.0" encoding="utf-8"?>
<!-- Generator: Adobe Illustrator 25.1.0, SVG Export Plug-In . SVG Version: 6.00 Build 0)  -->
<svg version="1.1" id="Capa_1" xmlns="http://www.w3.org/2000/svg" xmlns:xlink="http://www.w3.org/1999/xlink" x="0px" y="0px"
	 viewBox="0 0 340 296.1" style="enable-background:new 0 0 340 296.1;" xml:space="preserve">
<style type="text/css">
	.st0{fill:#073F1B;}
</style>
<path class="st0" d="M339.2,107c-1.3-2.6-3.9-4.2-6.7-4.2H138.9L157.8,84H194c4.1,0,7.5-3.4,7.5-7.5V58.9h41v25.1
	c0,4.1,3.4,7.5,7.5,7.5h33.6c4.1,0,7.5-3.4,7.5-7.5s-3.4-7.5-7.5-7.5h-26.1V51.4c0-4.1-3.4-7.5-7.5-7.5h-56c-4.1,0-7.5,3.4-7.5,7.5
	V69h-31.8c-2,0-3.9,0.8-5.3,2.2l-31.7,31.7H98.6c-0.1,0-0.2,0-0.3,0c-0.1,0-0.2,0-0.3,0H72.4c-35.5,0-65.2,25.8-71.2,59.6
	c0,0.1,0,0.2,0,0.2c-0.7,4.1-1.1,8.3-1.1,12.6v76.8c0,4.1,3.4,7.5,7.5,7.5h11.1c3.6,20.7,21.7,36.6,43.4,36.6s39.9-15.8,43.4-36.6
	h31.4c3.6,20.7,21.7,36.6,43.4,36.6c15.2,0,28.7-7.8,36.6-19.5c7.9,11.8,21.4,19.5,36.6,19.5c21.7,0,39.9-15.8,43.4-36.6h9.6
	c4.1,0,7.5-3.4,7.5-7.5v-27.6c0-4.1-3.4-7.5-7.5-7.5s-7.5,3.4-7.5,7.5v20.1h-2.1c-3.6-20.7-21.7-36.6-43.4-36.6
	c-15.2,0-28.7,7.8-36.6,19.5c-7.9-11.8-21.4-19.5-36.6-19.5c-21.7,0-39.9,15.8-43.4,36.6H33.9C37.2,232.2,48.5,223,62,223
	c4.1,0,7.5-3.4,7.5-7.5S66.1,208,62,208c-21.7,0-39.9,15.8-43.4,36.6H15v-69.3c0-1.3,0.1-2.5,0.1-3.8h59.1c4.1,0,7.5-3.4,7.5-7.5
	v-46.1h8.7v68.5H32.1c-4.1,0-7.5,3.4-7.5,7.5s3.4,7.5,7.5,7.5H98h0.6h17.8h151.7h38.3c4.1,0,7.5-3.4,7.5-7.5s-3.4-7.5-7.5-7.5h-23
	l55.1-71.4C340.2,112.7,340.5,109.6,339.2,107z M62,281.1c-13.4,0-24.8-9.2-28.1-21.6h56.2C86.8,272,75.4,281.1,62,281.1z
	 M180.2,281.1c-13.4,0-24.8-9.2-28.1-21.6h56.2C205,272,193.6,281.1,180.2,281.1z M253.4,281.1c-13.4,0-24.8-9.2-28.1-21.6h56.2
	C278.1,272,266.8,281.1,253.4,281.1z M253.4,223c13.4,0,24.8,9.2,28.1,21.6h-56.2C228.6,232.2,239.9,223,253.4,223z M180.2,223
	c13.4,0,24.8,9.2,28.1,21.6h-56.2C155.4,232.2,166.8,223,180.2,223z M18.2,156.5c7.2-20.8,26-36.1,48.6-38.4v38.4H18.2z
	 M265.7,184.6v-42.1c0-4.1-3.4-7.5-7.5-7.5s-7.5,3.4-7.5,7.5v43.8h-18.8v-43.8c0-4.1-3.4-7.5-7.5-7.5s-7.5,3.4-7.5,7.5v43.8h-18.8
	v-43.8c0-4.1-3.4-7.5-7.5-7.5s-7.5,3.4-7.5,7.5v43.8h-18.8v-43.8c0-4.1-3.4-7.5-7.5-7.5s-7.5,3.4-7.5,7.5v43.8h-33h-10.3v-68.5
	h211.2L265.7,184.6z"/>
</svg>
